HIERARCHY
ROOT root
{
	OFFSET	0	13.1	24.9
	CHANNELS 6  Xposition Yposition Zposition Xrotation Yrotation Zrotation
	JOINT spine_1
	{
		OFFSET	0	9.99999	0
		CHANNELS 3  Xrotation Yrotation Zrotation
		JOINT spine_2
		{
			OFFSET	0	112	-10
			CHANNELS 3  Xrotation Yrotation Zrotation
			JOINT spine_3
			{
				OFFSET	0	206.5	19.3
				CHANNELS 3  Xrotation Yrotation Zrotation
				JOINT spine_4
				{
					OFFSET	0	110.4	14.6
					CHANNELS 3  Xrotation Yrotation Zrotation
					JOINT neck_1
					{
						OFFSET	0	71.8	-50.3
						CHANNELS 3  Xrotation Yrotation Zrotation
						JOINT neck_2
						{
							OFFSET	0	86.2	-25.8
							CHANNELS 3  Xrotation Yrotation Zrotation
							JOINT head_ee
							{
								OFFSET	0	179.8	-8.7
								CHANNELS 3  Xrotation Yrotation Zrotation
								End Site
								{
									OFFSET	1	0	0
								}
							}
						}
					}
					JOINT left_clavicle
					{
						OFFSET	-43.2	22.4	-70.8
						CHANNELS 3  Xrotation Yrotation Zrotation
						JOINT left_shoulder
						{
							OFFSET	-93.9	-5.79999	48.7
							CHANNELS 3  Xrotation Yrotation Zrotation
							JOINT left_elbow
							{
								OFFSET	-291.4	-30.8	15.2
								CHANNELS 3  Xrotation Yrotation Zrotation
								JOINT left_lowarm_twist
								{
									OFFSET	-110.7	-3.89999	13.6
									CHANNELS 3  Xrotation Yrotation Zrotation
									JOINT left_hand
									{
										OFFSET	-110.7	-3.89999	13.6
										CHANNELS 3  Xrotation Yrotation Zrotation
										JOINT left_ee
										{
											OFFSET	-80.8	-5.10001	12.1
											CHANNELS 3  Xrotation Yrotation Zrotation
											End Site
											{
												OFFSET	1	0	0
											}
										}
									}
								}
							}
						}
					}
					JOINT right_clavicle
					{
						OFFSET	43.2	22.4	-70.8
						CHANNELS 3  Xrotation Yrotation Zrotation
						JOINT right_shoulder
						{
							OFFSET	93.9	-5.79999	48.7
							CHANNELS 3  Xrotation Yrotation Zrotation
							JOINT right_elbow
							{
								OFFSET	291.4	-30.8	15.2
								CHANNELS 3  Xrotation Yrotation Zrotation
								JOINT right_lowarm_twist
								{
									OFFSET	110.7	-3.89999	13.6
									CHANNELS 3  Xrotation Yrotation Zrotation
									JOINT right_hand
									{
										OFFSET	110.7	-3.89999	13.6
										CHANNELS 3  Xrotation Yrotation Zrotation
										JOINT right_ee
										{
											OFFSET	80.8	-5.10001	12.1
											CHANNELS 3  Xrotation Yrotation Zrotation
											End Site
											{
												OFFSET	1	0	0
											}
										}
									}
								}
							}
						}
					}
				}
			}
		}
	}
	JOINT left_hip
	{
		OFFSET	-82.8	-127.5	0.300001
		CHANNELS 3  Xrotation Yrotation Zrotation
		JOINT left_knee
		{
			OFFSET	-28.2	-396.7	2.2
			CHANNELS 3  Xrotation Yrotation Zrotation
			JOINT left_ankle
			{
				OFFSET	-11.7	-411.3	35.4
				CHANNELS 3  Xrotation Yrotation Zrotation
				JOINT left_toes
				{
					OFFSET	0	-60	-88.6
					CHANNELS 3  Xrotation Yrotation Zrotation
					JOINT left_foot_ee
					{
						OFFSET	-22.5	-16.5	-42.2
						CHANNELS 3  Xrotation Yrotation Zrotation
						End Site
						{
							OFFSET	1	0	0
						}
					}
				}
			}
		}
	}
	JOINT right_hip
	{
		OFFSET	82.8	-127.5	0.300001
		CHANNELS 3  Xrotation Yrotation Zrotation
		JOINT right_knee
		{
			OFFSET	28.2	-396.7	2.2
			CHANNELS 3  Xrotation Yrotation Zrotation
			JOINT right_ankle
			{
				OFFSET	11.7	-411.3	35.4
				CHANNELS 3  Xrotation Yrotation Zrotation
				JOINT right_toes
				{
					OFFSET	0	-60	-88.6
					CHANNELS 3  Xrotation Yrotation Zrotation
					JOINT right_foot_ee
					{
						OFFSET	22.5	-16.5	-42.2
						CHANNELS 3  Xrotation Yrotation Zrotation
						End Site
						{
							OFFSET	1	0	0
						}
					}
				}
			}
		}
	}
}
MOTION
Frames: 11
Frame Time: 0.02
3519.19 768.248 -1524.76 -14.2915 71.3942 11.5038 1.76004 0.450899 0.948865 1.76046 0.389609 0.97563 1.7672 0.207753 1.0298 1.76591 0.367775 0.984068 -5.86074 16.8484 -2.81561 -5.662 33.226 0.302228 -0.0 0.0 -0.0 3.13514 -0.0504389 6.03924 -22.6444 -27.6912 60.0466 2.26996 -48.3464 1.01899 -31.2223 -2.06964 3.36167 -0.948438 26.4242 5.12649 -0.0 0.0 -0.0 5.6168 12.8695 -10.3053 -25.9986 22.2327 -66.0274 0.909931 24.2633 -0.195602 15.6389 -0.283541 1.97142 -0.997111 -22.9775 -3.40133 0.0 0.0 0.0 -0.569922 -0.542318 2.04228 -3.73389 0.135627 0.556886 -0.286836 7.80043 0.0420072 19.5249 -0.0 -0.0 -0.0 0.0 -0.0 15.1848 -33.337 6.18487 -7.27425 -0.23044 -1.09185 14.5507 30.5226 2.58203 2.60143 -0.0 -0.0 0.0 0.0 0.0 
3516.3 769.609 -1530.25 -14.6729 71.4211 12.7312 1.77847 0.482607 0.795549 1.77872 0.431008 0.824644 1.78502 0.275914 0.888633 1.78416 0.41279 0.833911 -5.0201 16.9492 -3.19618 -4.68773 33.5897 -0.342991 -0.0 0.0 -0.0 3.21583 0.407202 6.224 -22.504 -26.6656 60.0472 2.22778 -47.8124 0.987604 -31.6499 -2.11002 3.39878 -1.00994 25.6443 4.4571 -0.0 0.0 -0.0 5.71862 12.9617 -10.5156 -25.9556 22.6113 -65.8423 0.901846 24.0723 -0.192292 16.2775 -0.283604 2.05299 -0.87991 -24.7409 -4.81264 0.0 0.0 0.0 -0.578914 -0.257541 1.89691 -3.93628 0.141937 0.587305 -2.75528 7.11348 0.405822 20.7568 -0.0 -0.0 -0.0 0.0 -0.0 14.5173 -34.3483 5.61845 -8.73541 -0.259899 -1.31413 13.6539 32.6925 2.50998 2.87908 -0.0 -0.0 0.0 0.0 0.0 
3508.95 773.163 -1529.39 -12.9585 72.0465 10.8008 1.6782 0.418774 0.779846 1.67846 0.368304 0.804911 1.68373 0.216248 0.858348 1.68287 0.34909 0.813428 -4.54265 16.9928 -3.53893 -4.12474 33.8649 -0.847796 -0.0 0.0 -0.0 3.26636 0.847335 6.34822 -23.1227 -26.0087 60.6015 2.18579 -47.2697 0.956624 -31.47 -2.093 3.38321 -0.982122 24.1159 3.96997 -0.0 0.0 -0.0 5.61256 13.1388 -10.2789 -26.303 22.7505 -65.3021 0.88899 23.7674 -0.187079 16.7789 -0.283018 2.11703 -0.784804 -26.1636 -5.93161 0.0 0.0 0.0 -0.711507 -0.0249869 1.33772 -4.15737 0.148707 0.620562 -4.55962 7.1818 0.673998 21.413 -0.0 -0.0 -0.0 0.0 -0.0 14.9649 -34.9508 6.21631 -9.13897 -0.267035 -1.37564 12.4478 31.9452 2.27693 3.01571 -0.0 -0.0 0.0 0.0 0.0 
3505.96 768.764 -1529.41 -13.3413 71.4727 11.4113 1.68081 0.369296 0.700379 1.68102 0.323982 0.722458 1.68518 0.187625 0.769222 1.68449 0.306752 0.72994 -4.2707 16.9631 -3.7899 -3.80162 33.9637 -1.20422 -0.0 0.0 -0.0 3.25325 0.999188 6.3323 -23.5042 -25.4119 60.7575 2.15669 -46.887 0.935316 -31.3394 -2.08067 3.37186 -0.965065 23.0517 3.61761 -0.0 0.0 -0.0 5.67125 13.7949 -10.3606 -25.4581 23.302 -64.9059 0.897527 23.97 -0.190534 17.1191 -0.282301 2.16047 -0.718641 -27.1797 -6.70795 0.0 0.0 0.0 -0.669309 0.149557 0.929252 -4.30904 0.153277 0.64339 -5.82929 7.23333 0.863683 21.8731 -0.0 -0.0 -0.0 0.0 -0.0 15.2487 -35.4207 6.67057 -9.46484 -0.272481 -1.42535 11.5265 31.3908 2.10089 3.04631 -0.0 -0.0 0.0 0.0 0.0 
3498.86 760.052 -1533.19 -13.5092 72.3056 11.747 1.78167 0.246407 0.707989 1.78193 0.200858 0.722233 1.7845 0.0678661 0.746563 1.78377 0.184917 0.726478 -4.21273 16.1499 -5.54795 -3.66076 33.773 -3.19424 -0.0 0.0 -0.0 3.35038 1.27754 6.53471 -24.0205 -25.3231 60.8724 2.09297 -46.0293 0.889126 -31.8927 -2.13307 3.41971 -0.919904 21.8202 3.35814 -0.0 0.0 -0.0 5.77767 14.2556 -10.5568 -24.4229 23.6661 -64.454 0.840547 22.6058 -0.168005 17.6061 -0.280825 2.22265 -0.797038 -27.3326 -6.33645 0.0 0.0 0.0 -0.444625 1.0844 1.39603 -5.11169 0.176456 0.764389 -5.89331 9.34294 0.873088 21.9211 -0.0 -0.0 -0.0 0.0 -0.0 15.3364 -35.7823 6.71392 -9.96271 -0.280256 -1.50135 10.9132 30.0031 1.95675 3.07249 -0.0 -0.0 0.0 0.0 0.0 
3490.55 764.178 -1540.99 -12.2739 72.8891 10.4785 1.73154 0.244984 0.650362 1.73175 0.203104 0.664632 1.73415 0.0798149 0.690373 1.73353 0.187842 0.669106 -6.0412 15.9269 -5.9537 -5.73778 33.7992 -3.03237 -0.0 0.0 -0.0 3.3103 2.00394 6.50051 -25.2061 -24.7542 60.7002 2.00206 -44.7579 0.824397 -32.3342 -2.17522 3.45753 -0.908211 20.9533 3.05926 -0.0 0.0 -0.0 5.95521 14.5318 -10.9178 -23.1572 23.718 -64.4194 0.839783 22.5873 -0.167711 17.9479 -0.279473 2.26629 -0.824708 -27.0527 -6.07048 0.0 0.0 0.0 -0.175312 1.75609 1.51249 -6.35458 0.208994 0.95235 -5.79979 12.6219 0.861136 22.252 -0.0 -0.0 -0.0 0.0 -0.0 15.2338 -35.8937 6.77556 -13.315 -0.315374 -2.01444 12.4184 29.246 2.18906 3.1547 -0.0 -0.0 0.0 0.0 0.0 
3486.56 766.348 -1546.71 -10.7483 72.3671 9.20047 1.71268 0.299554 0.601174 1.71285 0.260693 0.619016 1.71571 0.144484 0.655946 1.7152 0.246263 0.624897 -5.58767 15.9047 -6.24353 -5.19966 33.9388 -3.49305 -0.0 0.0 -0.0 3.28473 2.50534 6.4809 -26.0013 -24.2512 60.6227 1.875 -42.8823 0.736414 -32.511 -2.19217 3.47258 -1.07513 19.9776 1.65328 -0.0 0.0 -0.0 6.06038 13.7807 -11.1914 -22.1924 23.7976 -64.6129 0.799044 21.5947 -0.15239 16.9035 -0.282785 2.13293 -1.11581 -27.0817 -4.47621 0.0 0.0 0.0 0.170493 2.56453 0.600541 -8.86269 0.262197 1.33353 -5.74749 15.7786 0.857915 22.4837 -0.0 -0.0 -0.0 0.0 -0.0 15.5957 -35.8587 7.33193 -14.4451 -0.32044 -2.18776 13.4741 28.7193 2.34715 2.69651 -0.0 -0.0 0.0 0.0 0.0 
3478.6 760.449 -1552.79 -8.45843 72.3082 7.12487 1.6884 0.333048 0.579101 1.68854 0.295524 0.59912 1.69168 0.182071 0.64275 1.69122 0.281294 0.605931 -5.29362 15.8913 -6.44098 -4.84882 34.0391 -3.80309 -0.0 0.0 -0.0 3.27724 2.85748 6.48681 -26.5296 -23.8771 60.6068 1.78794 -41.5273 0.677924 -32.6347 -2.20407 3.48309 -1.19114 19.2979 0.664356 -0.0 0.0 -0.0 6.13943 13.2625 -11.3923 -21.5021 23.8579 -64.7589 0.770873 20.9002 -0.142181 16.1722 -0.283657 2.03954 -1.32136 -27.1139 -3.35916 0.0 0.0 0.0 0.525013 3.18523 0.473103 -11.0759 0.295246 1.6715 -5.71315 17.9581 0.857466 22.6348 -0.0 -0.0 -0.0 0.0 -0.0 15.1458 -35.9763 6.87342 -15.6289 -0.322081 -2.36937 14.24 28.4149 2.46174 2.38708 -0.0 -0.0 0.0 0.0 0.0 
3476.7 759.716 -1554.78 -9.48932 72.9054 7.81313 1.65784 0.344546 0.567402 1.65796 0.307743 0.588175 1.66118 0.195733 0.634305 1.66074 0.293452 0.595434 -5.09335 15.8818 -6.57675 -4.60917 34.108 -4.01647 -0.0 0.0 -0.0 3.16377 3.36827 6.30307 -27.561 -23.4838 60.7536 1.72165 -40.4559 0.63444 -32.7372 -2.21394 3.49177 -1.27159 18.8147 -0.0320399 -0.0 0.0 -0.0 6.19879 13.0568 -11.5312 -20.1262 23.9805 -64.8008 0.752788 20.4509 -0.135795 15.7407 -0.283612 1.98443 -1.46638 -27.1448 -2.57626 0.0 0.0 0.0 0.761957 3.61771 0.473021 -12.6588 0.310864 1.91386 -5.68685 19.317 0.857071 23.0157 -0.0 -0.0 -0.0 0.0 -0.0 14.7848 -36.1096 6.51795 -16.1088 -0.321677 -2.44301 14.7906 28.5417 2.55403 2.62278 -0.0 -0.0 0.0 0.0 0.0 
3468.26 757.869 -1560.77 -7.68374 73.144 6.47952 1.61756 0.389205 0.561713 1.61767 0.352673 0.58534 1.62134 0.239989 0.639847 1.62092 0.338027 0.593918 -5.18547 15.9454 -6.62452 -4.7095 34.2659 -4.02352 -0.0 0.0 -0.0 3.02827 3.8379 6.07771 -28.4842 -23.1259 60.8451 1.62298 -38.7955 0.571504 -32.8085 -2.22082 3.4978 -1.33687 18.5953 -0.522483 -0.0 0.0 -0.0 6.27061 13.2499 -11.6728 -18.9186 24.2734 -64.9737 0.753349 20.4649 -0.135991 15.4736 -0.283376 1.95031 -1.55123 -27.1676 -2.12092 0.0 0.0 0.0 0.849271 3.35632 -0.724713 -13.7563 0.31776 2.08211 -5.43193 20.2652 0.820982 23.2824 -0.0 -0.0 -0.0 0.0 -0.0 14.1719 -36.2028 6.55782 -16.8315 -0.319905 -2.55387 15.1738 28.6824 2.61981 2.7891 -0.0 -0.0 0.0 0.0 0.0 
3459.91 757.733 -1563.21 -7.31102 74.6346 6.24481 1.60938 0.395811 0.563114 1.60949 0.359177 0.587158 1.61324 0.245962 0.642856 1.61282 0.3444 0.595946 -5.31889 15.9914 -6.65476 -4.85963 34.381 -4.00027 -0.0 0.0 -0.0 2.93113 4.14209 5.9155 -29.0872 -22.8707 60.8535 1.55756 -37.6499 0.531021 -32.8588 -2.22567 3.50205 -1.38328 18.4417 -0.871002 -0.0 0.0 -0.0 6.39894 13.4734 -11.9335 -17.6443 24.5579 -65.1339 0.755657 20.5224 -0.136799 15.3237 -0.283174 1.93116 -1.60532 -27.1825 -1.83106 0.0 0.0 0.0 0.632655 3.20747 -0.867659 -14.9241 0.321556 2.26125 -5.24291 20.8703 0.793931 23.4708 -0.0 -0.0 -0.0 0.0 -0.0 13.6325 -36.1873 6.35753 -17.3542 -0.317752 -2.63404 15.5542 28.8582 2.6863 2.95021 -0.0 -0.0 0.0 0.0 0.0 
